<?xml version="1.0" standalone="no"?>
<!DOCTYPE svg PUBLIC "-//W3C//DTD SVG 20010904//EN"
 "http://www.w3.org/TR/2001/REC-SVG-20010904/DTD/svg10.dtd">
<svg version="1.0" xmlns="http://www.w3.org/2000/svg"
 width="50.000000pt" height="50.000000pt" viewBox="0 0 50.000000 50.000000"
 preserveAspectRatio="xMidYMid meet">

<g transform="translate(0.000000,50.000000) scale(0.100000,-0.100000)"
fill="#f5f5f5" stroke="none">
<path d="M56 444 c-24 -23 -24 -365 0 -388 23 -24 365 -24 388 0 24 23 24 365
0 388 -23 24 -365 24 -388 0z m379 -194 l0 -185 -52 -3 -53 -3 0 70 c0 63 2
71 19 71 11 0 21 9 25 23 10 38 7 47 -19 47 -16 0 -25 6 -25 15 0 9 9 15 25
15 21 0 25 5 25 29 0 31 -14 41 -60 41 -33 0 -70 -40 -70 -76 0 -15 -6 -24
-15 -24 -10 0 -15 -11 -15 -35 0 -24 5 -35 15 -35 12 0 15 -14 15 -70 l0 -71
-92 3 -93 3 -3 175 c-1 96 0 180 3 187 3 11 44 13 187 11 l183 -3 0 -185z
m-78 83 c2 -6 -6 -13 -19 -15 -18 -2 -24 -10 -26 -35 -3 -29 0 -33 22 -33 18
0 24 -4 20 -15 -4 -8 -15 -15 -25 -15 -17 0 -19 -8 -19 -80 0 -73 -2 -80 -20
-80 -18 0 -20 7 -20 80 0 64 -3 80 -15 80 -8 0 -15 7 -15 15 0 8 7 15 15 15
10 0 15 10 15 34 0 19 7 42 16 51 18 18 65 17 71 -2z"/>
</g>
</svg>
