<?xml version="1.0" standalone="no"?>
<!DOCTYPE svg PUBLIC "-//W3C//DTD SVG 20010904//EN"
 "http://www.w3.org/TR/2001/REC-SVG-20010904/DTD/svg10.dtd">
<svg version="1.0" xmlns="http://www.w3.org/2000/svg"
 width="325.000000pt" height="256.000000pt" viewBox="0 0 325.000000 256.000000"
 preserveAspectRatio="xMidYMid meet">

<g transform="translate(0.000000,256.000000) scale(0.100000,-0.100000)"
fill="#f5f5f5" stroke="none">
<path d="M1415 2339 c-328 -47 -646 -254 -867 -564 -66 -92 -124 -213 -110
-227 19 -19 37 -1 75 75 50 100 153 232 269 343 142 135 288 225 455 279 142
47 366 72 493 57 61 -8 78 -7 90 5 13 13 13 16 -4 29 -16 11 -55 14 -180 13
-89 -1 -188 -5 -221 -10z"/>
<path d="M2033 2285 c-7 -20 19 -39 72 -55 149 -45 373 -205 491 -350 59 -74
61 -75 83 -61 20 13 -17 68 -109 165 -91 95 -216 184 -365 257 -122 61 -161
70 -172 44z"/>
<path d="M1448 1905 c-42 -8 -113 -28 -158 -44 -185 -68 -248 -146 -186 -230
13 -18 130 -142 260 -276 130 -134 236 -247 236 -251 0 -4 -117 -125 -259
-268 -143 -144 -264 -274 -270 -289 -17 -44 -13 -89 10 -127 28 -45 40 -55
124 -95 279 -133 682 -120 922 31 83 53 103 116 63 199 -13 26 -117 141 -271
299 l-251 257 73 77 c40 42 152 159 248 260 97 101 182 194 189 208 45 85 -97
192 -321 240 -103 22 -314 27 -409 9z m407 -59 c108 -26 204 -67 246 -105 36
-32 39 -39 31 -61 -10 -25 -487 -520 -502 -520 -17 0 -500 510 -500 528 0 54
155 134 325 168 86 17 313 11 400 -10z m-215 -803 c0 -5 -13 -17 -28 -27 l-27
-19 24 26 c26 28 31 32 31 20z m327 -310 c88 -93 167 -179 176 -193 69 -101
-85 -205 -365 -246 -188 -27 -396 3 -555 81 -129 64 -143 111 -62 202 112 125
313 317 317 302 12 -34 78 -87 120 -94 90 -15 160 16 183 80 7 19 16 35 20 35
4 0 78 -75 166 -167z"/>
<path d="M1505 1742 c-76 -37 -135 -122 -135 -194 1 -47 32 -109 71 -142 106
-90 248 -75 324 32 26 38 30 52 30 110 0 86 -25 137 -87 175 -62 38 -146 46
-203 19z m64 -56 c16 -19 -4 -59 -26 -54 -26 5 -39 34 -24 52 17 20 35 20 50
2z"/>
<path d="M1425 697 c-58 -33 -87 -88 -82 -160 5 -90 58 -146 145 -155 97 -9
171 40 192 128 19 77 -16 162 -80 195 -44 23 -128 19 -175 -8z"/>
<path d="M1840 648 c-14 -7 -33 -29 -43 -48 -63 -122 96 -243 189 -143 19 21
24 37 24 79 0 45 -5 59 -28 85 -32 36 -100 49 -142 27z"/>
<path d="M2710 1746 c-9 -12 -7 -28 13 -78 14 -35 29 -76 32 -91 6 -21 13 -27
29 -25 32 5 31 40 -5 118 -37 82 -51 97 -69 76z"/>
</g>
</svg>
