<?xml version="1.0" standalone="no"?>
<!DOCTYPE svg PUBLIC "-//W3C//DTD SVG 20010904//EN"
 "http://www.w3.org/TR/2001/REC-SVG-20010904/DTD/svg10.dtd">
<svg version="1.0" xmlns="http://www.w3.org/2000/svg"
 width="24.000000pt" height="24.000000pt" viewBox="0 0 24.000000 24.000000"
 preserveAspectRatio="xMidYMid meet">

<g transform="translate(0.000000,24.000000) scale(0.100000,-0.100000)"
fill="#f5f5f5" stroke="none">
<path d="M56 198 c-20 -28 -20 -52 -1 -68 10 -8 15 -30 15 -61 0 -27 5 -49 10
-49 6 0 10 22 10 49 0 31 5 53 15 61 8 7 15 20 15 29 0 19 -27 61 -40 61 -5 0
-16 -10 -24 -22z m39 -19 c9 -26 -10 -48 -26 -32 -12 12 -3 53 11 53 5 0 12
-9 15 -21z"/>
<path d="M150 120 c0 -60 4 -100 10 -100 6 0 10 11 10 24 0 13 7 30 16 37 25
21 3 139 -26 139 -6 0 -10 -42 -10 -100z m27 -7 c-3 -10 -5 -4 -5 12 0 17 2
24 5 18 2 -7 2 -21 0 -30z"/>
</g>
</svg>
