<?xml version="1.0" standalone="no"?>
<!DOCTYPE svg PUBLIC "-//W3C//DTD SVG 20010904//EN"
 "http://www.w3.org/TR/2001/REC-SVG-20010904/DTD/svg10.dtd">
<svg version="1.0" xmlns="http://www.w3.org/2000/svg"
 width="24.000000pt" height="24.000000pt" viewBox="0 0 24.000000 24.000000"
 preserveAspectRatio="xMidYMid meet">

<g transform="translate(0.000000,24.000000) scale(0.100000,-0.100000)"
fill="#f5f5f5" stroke="none">
<path d="M60 165 c-24 -25 -39 -45 -32 -45 8 0 12 -16 12 -45 0 -45 0 -45 35
-45 32 0 35 2 35 30 0 17 5 30 10 30 6 0 10 -13 10 -30 0 -28 3 -30 35 -30 35
0 35 0 35 45 0 29 4 45 12 45 7 0 -8 20 -32 45 -24 25 -51 45 -60 45 -9 0 -36
-20 -60 -45z m92 -2 c22 -21 28 -36 28 -70 0 -32 -4 -43 -15 -43 -10 0 -15 10
-15 30 0 27 -3 30 -30 30 -27 0 -30 -3 -30 -30 0 -20 -5 -30 -15 -30 -11 0
-15 11 -15 42 0 32 6 49 27 70 15 15 29 28 32 28 3 0 18 -12 33 -27z"/>
</g>
</svg>
